# xmcd
#
# Track frame offsets: 
#        300
#        20264
#        69140
#        90495
#        106660
#        127614
#        153898
#        176503
#        199593
#        215502
#        254341
#        275820
#        299693
#
# Disc length: 4241 seconds
#
# Revision: 0
# Processed by: cddbd v1.4PL0 Copyright (c) Steve Scherf et al.
# Submitted via: ExactAudioCopy v0.90a11
#
DISCID=ad108d0d
DTITLE=Cowboy Junkies - Cowboy Junkies Live Nov 07, 2001 - Disc 1
DYEAR=1900
DGENRE=
TTITLE0=A Horse In The Country
TTITLE1=First Recollection
TTITLE2=Casue Cheap Is How I Feel
TTITLE3=If You Were The Woman And I Was The Man
TTITLE4=Sun Comes Up It's Tuesday Morning
TTITLE5=Bread And Wine
TTITLE6=1000 Year Prayer
TTITLE7=Hard To Explain
TTITLE8=This Street That Man This Life
TTITLE9=Dark Hole Again
TTITLE10=Beneath The Gate
TTITLE11=Something More Besides You
TTITLE12=Hollow As A Bone
EXTD=
EXTT0=
EXTT1=
EXTT2=
EXTT3=
EXTT4=
EXTT5=
EXTT6=
EXTT7=
EXTT8=
EXTT9=
EXTT10=
EXTT11=
EXTT12=
PLAYORDER=
